<?xml version="1.0" encoding="UTF-8" standalone="no"?>
<svg
   xmlns:dc="http://purl.org/dc/elements/1.1/"
   xmlns:cc="http://creativecommons.org/ns#"
   xmlns:rdf="http://www.w3.org/1999/02/22-rdf-syntax-ns#"
   xmlns:svg="http://www.w3.org/2000/svg"
   xmlns="http://www.w3.org/2000/svg"
   xmlns:sodipodi="http://sodipodi.sourceforge.net/DTD/sodipodi-0.dtd"
   xmlns:inkscape="http://www.inkscape.org/namespaces/inkscape"
   viewBox="0 0 348 348"
   fill="none"
   version="1.1"
   id="svg246"
   sodipodi:docname="Vcrcs.svg"
   inkscape:version="0.92.4 (5da689c313, 2019-01-14)">
  <metadata
     id="metadata250">
    <rdf:RDF>
      <cc:Work
         rdf:about="">
        <dc:format>image/svg+xml</dc:format>
        <dc:type
           rdf:resource="http://purl.org/dc/dcmitype/StillImage" />
        <dc:title />
      </cc:Work>
    </rdf:RDF>
  </metadata>
  <sodipodi:namedview
     pagecolor="#ffffff"
     bordercolor="#666666"
     borderopacity="1"
     objecttolerance="10"
     gridtolerance="10"
     guidetolerance="10"
     inkscape:pageopacity="0"
     inkscape:pageshadow="2"
     inkscape:window-width="1366"
     inkscape:window-height="706"
     id="namedview248"
     showgrid="false"
     inkscape:zoom="1.46"
     inkscape:cx="206.41534"
     inkscape:cy="178.09917"
     inkscape:window-x="-8"
     inkscape:window-y="-8"
     inkscape:window-maximized="1"
     inkscape:current-layer="svg246" />
  <defs
     id="defs224">
    <filter
       id="a"
       color-interpolation-filters="sRGB">
      <feColorMatrix
         values="0.21 0.72 0.072 0 0 0.21 0.72 0.072 0 0 0.21 0.72 0.072 0 0 0 0 0 1 0"
         id="feColorMatrix218" />
    </filter>
    <filter
       id="b"
       color-interpolation-filters="sRGB">
      <feColorMatrix
         values="0.21 0.72 0.072 0 0 0.21 0.72 0.072 0 0 0.21 0.72 0.072 0 0 0 0 0 1 0"
         id="feColorMatrix221" />
    </filter>
  </defs>
  <path
     d="M5.079 5.776h336.913v337.67H5.08z"
     stroke-width="2"
     stroke="#000"
     id="path226" />
  <path
     d="M282.734 40.554c0-8.376 6.966-15.165 15.56-15.165 4.126 0 8.084 1.597 11.001 4.441 2.918 2.844 4.558 6.702 4.558 10.724 0 8.376-6.966 15.165-15.56 15.165-8.593 0-15.559-6.79-15.559-15.165z"
     stroke-width="2"
     stroke="#000"
     id="path228" />
  <g
     aria-label="PUSH IT!"
     style="font-style:normal;font-variant:normal;font-weight:normal;font-stretch:normal;font-size:58.41326904px;line-height:1.25;font-family:'Special Elite';-inkscape-font-specification:'Special Elite';letter-spacing:0px;word-spacing:0px;fill:#000000;fill-opacity:1;stroke:none;stroke-width:1.75239825"
     id="text111" />
  <path
     style="fill:#000000;fill-opacity:1;stroke:#1a1a1a;stroke-width:1.07809436;stroke-miterlimit:4;stroke-dasharray:none;stroke-opacity:1"
     d="M 25.039082,127.24085 H 321.48278 v 99.1062 H 25.039082 Z"
     id="rect137" />
  <g
     aria-label="victory"
     style="font-style:normal;font-variant:normal;font-weight:normal;font-stretch:normal;font-size:69.80992126px;line-height:1.25;font-family:'Special Elite';-inkscape-font-specification:'Special Elite';letter-spacing:0px;word-spacing:0px;fill:#ffffff;fill-opacity:1;stroke:none;stroke-width:3.27234006"
     id="text141"
     transform="translate(2)">
    <path
       d="m 72.584683,163.99997 q -0.06817,1.15896 -0.715825,1.90887 -0.613563,0.74991 -1.533909,1.19304 -0.920346,0.44313 -2.011126,0.64765 -1.056693,0.17043 -1.977039,0.20452 -1.261214,0.0682 -1.772517,0.54539 -0.511303,0.47722 -0.852172,1.63617 -0.170434,0.54539 -0.477216,1.32939 -0.306782,0.784 -0.715825,1.60208 -0.374955,0.784 -0.783998,1.49982 -0.409042,0.71583 -0.818085,1.09078 0.03409,0.37496 0.170435,0.74992 0.136347,0.37495 0.136347,0.74991 0,0.44313 -0.306782,0.92034 -0.374955,0.61357 -0.511303,1.09078 -0.136347,0.44313 -0.170434,0.88626 -0.03409,0.40904 -0.06817,0.88626 -0.03409,0.44313 -0.238608,1.02261 -0.340869,0.92034 -0.852172,1.77251 -0.511303,0.85218 -1.09078,1.63617 -0.306782,1.43165 -0.681738,2.93148 -0.340868,1.49982 -0.852172,2.96555 -0.511303,1.43165 -1.19304,2.79513 -0.681738,1.32939 -1.63617,2.48834 l -0.511303,-0.0341 h -0.204522 q -0.920345,0 -1.806604,0.2727 -0.886259,0.30678 -1.772518,0.30678 -0.511303,0 -0.818085,-0.20452 -0.272695,-0.17044 -0.477216,-0.47722 -0.204521,-0.27269 -0.374955,-0.64765 -0.136348,-0.34087 -0.374956,-0.68174 v -0.95443 q -0.170434,-0.13635 -0.374956,-0.13635 -0.204521,-0.0341 -0.409042,-0.0341 -0.204521,-0.0341 -0.374956,-0.0682 -0.170434,-0.0682 -0.272695,-0.27269 -0.204521,-0.34087 -0.272695,-0.81809 -0.03409,-0.5113 -0.06817,-1.05669 0,-0.54539 -0.06817,-1.09078 -0.03409,-0.54539 -0.238608,-1.05669 -0.204522,-0.47722 -0.409043,-0.88626 -0.204521,-0.44313 -0.409042,-0.92035 -0.238609,-0.5113 -0.340869,-1.09078 -0.06817,-0.57947 -0.136348,-1.15895 -0.06817,-0.57948 -0.170434,-1.12487 -0.102261,-0.57947 -0.374956,-1.09078 -0.272695,-0.44313 -0.511303,-0.784 -0.238608,-0.34087 -0.477216,-0.68173 -0.204521,-0.34087 -0.409043,-0.71583 -0.170434,-0.37495 -0.272695,-0.92034 -0.715824,-3.27234 -1.772517,-6.37425 -1.056693,-3.13599 -2.829211,-5.9652 -0.409042,0.20452 -0.886259,0.30678 -0.443129,0.0682 -0.920345,0.0682 -0.954433,0 -1.977039,-0.27269 -0.783998,-0.17044 -1.363475,-0.30678 -0.54539,-0.17044 -0.920346,-0.44313 -0.374955,-0.30679 -0.579477,-0.85218 -0.170434,-0.54539 -0.170434,-1.49982 0,-0.92034 0.409043,-1.46573 0.443129,-0.57948 1.09078,-0.88626 0.64765,-0.34087 1.431648,-0.44313 0.818085,-0.13635 1.53391,-0.13635 1.19304,0 2.28382,0.2727 1.124867,0.2386 2.249734,0.2386 1.124867,0 2.215647,-0.10226 1.124867,-0.13634 2.249734,-0.13634 0.238608,0 0.920346,0.10226 0.715824,0.10226 1.465735,0.37495 0.783998,0.23861 1.397562,0.68174 0.647651,0.44313 0.749911,1.09078 0,0.71582 -0.204521,1.49982 -0.204521,0.74991 -0.715824,1.22713 -0.238608,0.23861 -0.749912,0.37496 -0.477216,0.10226 -0.988519,0.20452 -0.477216,0.10226 -0.852172,0.20452 -0.374955,0.10226 -0.409042,0.23861 -0.136348,0.64765 -0.238608,1.39756 -0.06817,0.74991 -0.06817,1.43165 0,0.5113 0.10226,0.78399 0.136348,0.2727 0.272695,0.40905 0.170435,0.13634 0.272695,0.23861 0.136348,0.0682 0.170435,0.2386 0.06817,0.40905 0.136347,0.81809 0.06817,0.37495 0.136348,0.74991 0.03409,0.34087 0.306782,0.81808 0.272695,0.47722 0.579477,0.95444 0.306781,0.47721 0.54539,0.92034 0.238608,0.44313 0.238608,0.68174 0,0.0682 -0.374956,0.17043 -0.374956,0.10227 -0.374956,0.20453 0,0.0682 0.170435,0.17043 0.170434,0.0682 0.374955,0.17043 0.238609,0.0682 0.409043,0.13635 0.204521,0.0341 0.272695,0.0341 v 0.5113 q 0,1.22713 0.340869,2.31791 0.340868,1.09078 0.749911,2.14747 0.443129,1.02261 0.852172,2.0793 0.409042,1.02261 0.511303,2.18156 l 0.443129,0.0341 h 0.170435 q 0.749911,0 1.158954,-0.44313 0.409042,-0.44313 0.715824,-0.98852 0.340869,-0.54539 0.749911,-0.98852 0.409043,-0.47721 1.124867,-0.5113 0.03409,-0.17044 0.03409,-0.47722 0,-0.44313 -0.136348,-0.85217 -0.10226,-0.44313 -0.10226,-0.88626 0,-0.57948 0.170434,-0.85217 0.170435,-0.30678 0.374956,-0.57948 0.204521,-0.30678 0.374955,-0.71582 0.170435,-0.44313 0.170435,-1.32939 0,-0.2727 0.136347,-0.57948 0.136348,-0.30678 0.340869,-0.61356 0.204521,-0.30678 0.409043,-0.57948 0.238608,-0.30678 0.374955,-0.54539 0.511303,-0.74991 0.749912,-1.84069 0.272695,-1.12487 0.374955,-2.28382 0.136348,-1.15895 0.136348,-2.21565 0.03409,-1.09078 0.03409,-1.8066 0,-0.784 -0.647651,-1.09078 -0.613564,-0.30678 -1.397562,-0.44313 -0.749911,-0.17043 -1.397562,-0.34087 -0.613564,-0.20452 -0.613564,-0.74991 0,-0.23861 0.102261,-0.40904 0.102261,-0.20452 0.238608,-0.37496 0.136348,-0.20452 0.238608,-0.37495 0.102261,-0.20453 0.102261,-0.40905 0,-0.2386 -0.136348,-0.40904 -0.10226,-0.20452 -0.10226,-0.44313 0,-0.54539 0.443129,-0.85217 0.443129,-0.34087 1.056693,-0.5113 0.613564,-0.17044 1.227128,-0.20452 0.64765,-0.0682 1.022606,-0.0682 0.613564,0 1.09078,0.17044 0.477216,0.13634 0.886259,0.34086 0.443129,0.17044 0.852172,0.34087 0.409042,0.13635 0.818085,0.13635 0.340868,0 0.477216,-0.23861 0.374956,-0.5113 0.511303,-0.74991 0.136348,-0.27269 0.306782,-0.37495 0.170434,-0.10226 0.477216,-0.10226 0.306782,-0.0341 1.022607,-0.0682 l 1.19304,-0.0341 q 0.954433,-0.0341 1.942952,0.0682 1.022606,0.0682 1.977039,0.34087 0.988519,0.27269 1.840691,0.784 0.886259,0.5113 1.499823,1.32938 z m -7.771808,-0.98852 q -0.477216,-0.0682 -0.749911,-0.44313 -0.272695,-0.40904 -0.715825,-0.5113 -0.06817,0.10226 -0.06817,0.34087 0,0.37496 0.306782,0.74991 0.340868,0.37496 0.715824,0.37496 0.238608,0 0.340869,-0.13635 0.10226,-0.17043 0.170434,-0.37496 z"
       style="stroke-width:3.27234006"
       id="path1214"
       inkscape:connector-curvature="0" />
    <path
       d="m 95.525151,152.30818 q 0,0.98851 -0.340869,2.04521 -0.306782,1.0226 -0.920345,1.90886 -0.613564,0.85217 -1.499823,1.43165 -0.852172,0.54539 -1.908865,0.54539 -0.715824,0 -1.772517,-0.20452 -1.056694,-0.23861 -2.045213,-0.64765 -0.954432,-0.44313 -1.670257,-1.12487 -0.681737,-0.68173 -0.681737,-1.60208 0,-0.81809 0.170434,-1.67026 0.204521,-0.88626 0.238608,-1.77251 0.340869,-0.17044 0.681738,-0.61357 0.340868,-0.44313 0.64765,-0.88626 0.340869,-0.47721 0.647651,-0.85217 0.340869,-0.37495 0.681737,-0.40904 l -0.170434,0.0682 q 0.477216,-0.20452 0.988519,-0.34087 0.54539,-0.13634 1.09078,-0.13634 0.715825,0 1.704344,0.37495 1.022607,0.34087 1.942952,0.92035 0.920346,0.57947 1.567996,1.36347 0.647651,0.784 0.647651,1.60209 z M 112.0232,193.7919 q 0,0.57948 -0.23861,1.09078 -0.20452,0.51131 -0.61356,0.88626 -0.37496,0.40904 -0.88626,0.64765 -0.5113,0.23861 -1.12487,0.23861 -0.23861,0 -0.30678,-0.0682 -0.0682,-0.0682 -0.23861,-0.23861 -0.47721,-0.5113 -1.15895,-0.61357 -0.68174,-0.0682 -1.43165,-0.17043 -0.71583,-0.0682 -1.39756,-0.37496 -0.64765,-0.27269 -1.0567,-1.15895 -0.27269,-0.57948 -0.57947,-0.74991 -0.30679,-0.17043 -0.95444,-0.17043 -1.49982,0 -2.863293,0.47721 -1.363475,0.47722 -2.692863,1.09078 -1.329389,0.57948 -2.72695,1.05669 -1.363475,0.47722 -2.829211,0.47722 -0.818085,0 -1.63617,-0.17043 -0.783998,-0.13635 -1.53391,-0.47722 -0.170434,0.17043 -0.409042,0.23861 -0.204521,0.0682 -0.477216,0.0682 -0.238608,0 -0.477217,-0.0341 -0.204521,-0.0341 -0.374955,-0.0341 -0.03409,0 -0.374956,0.10226 -0.340869,0.13635 -0.409042,0.17043 l 0.204521,0.34087 q -0.204521,0.30678 -0.920346,0.57948 -0.715824,0.30678 -1.567996,0.5113 -0.818085,0.20452 -1.602083,0.34087 -0.783998,0.13635 -1.193041,0.13635 -1.09078,0 -1.806604,-0.37496 -0.681738,-0.34087 -1.363475,-1.22712 -0.238608,-0.34087 -0.613564,-0.68174 -0.340869,-0.34087 -0.681738,-0.68174 -0.306781,-0.37496 -0.54539,-0.784 -0.204521,-0.40904 -0.204521,-0.85217 0,-0.5113 0.54539,-0.85217 0.54539,-0.34087 1.295301,-0.54539 0.749912,-0.23861 1.499823,-0.30678 0.749911,-0.10226 1.158954,-0.10226 0.818085,0 1.63617,0.2386 0.818085,0.20453 1.63617,0.20453 0.749911,0 1.431649,-0.20453 0.681737,-0.20452 1.431648,-0.20452 0.647651,0 1.261215,0.10226 0.64765,0.0682 1.295301,0.0682 0.818085,0 1.567996,-0.2727 0.783998,-0.30678 1.465736,-0.784 0.272695,-1.67025 0.374956,-3.34051 0.136347,-1.67026 0.136347,-3.3746 0,-1.67026 -0.272695,-3.34051 -0.272695,-1.67026 -0.272695,-3.30643 0,-0.13635 0.06817,-0.13635 0.06817,-0.0341 0.136347,-0.0341 0.102261,-0.0341 0.170435,-0.0682 0.06817,-0.0682 0.06817,-0.27269 0,-0.71583 -0.204522,-1.39757 -0.204521,-0.68173 -0.204521,-1.39756 0,-0.88626 0.238608,-1.73843 0.238608,-0.85217 0.238608,-1.73843 0,-0.61356 -0.272695,-1.22713 -0.272695,-0.61356 -0.715824,-1.09078 -0.44313,-0.47721 -1.022606,-0.74991 -0.579477,-0.30678 -1.227128,-0.30678 -0.715824,0 -1.431649,0.17043 -0.681737,0.17044 -1.431648,0.40905 -0.749912,0.20452 -1.53391,0.37495 -0.749911,0.17044 -1.602083,0.17044 -0.988519,0 -1.942952,-0.13635 -0.954432,-0.13635 -1.942952,-0.30678 -0.477216,-0.0682 -1.09078,-0.13635 -0.579477,-0.0682 -1.124867,-0.23861 -0.54539,-0.17043 -0.920345,-0.5113 -0.374956,-0.34087 -0.374956,-0.98852 0,-1.19304 0.409042,-1.80661 0.44313,-0.64765 1.056694,-0.95443 0.64765,-0.30678 1.431648,-0.37495 0.783999,-0.0682 1.499823,-0.13635 1.295301,-0.10226 2.556516,-0.17044 1.295301,-0.10226 2.590602,-0.10226 1.602083,0 3.135993,0.20453 1.567996,0.17043 3.170079,0.17043 1.124867,0 2.147473,0.34087 1.022607,0.34087 1.772518,1.05669 0.783998,0.68174 1.227127,1.73843 0.44313,1.0567 0.44313,2.45426 0,0.92034 -0.409043,1.8066 -0.374955,0.85217 -0.988519,1.53391 0.238608,0.44313 0.477216,0.61356 0.238608,0.13635 0.443129,0.2727 0.204522,0.10226 0.340869,0.30678 0.136348,0.17044 0.136348,0.68174 0,0.27269 0.06817,0.64765 0.102261,0.34087 0.477217,0.37496 0,1.84069 -0.03409,3.64729 -0.03409,1.77252 -0.03409,3.57912 0,1.53391 0,3.06782 0.03409,1.53391 0.272695,3.06782 0.136347,0.95443 0.54539,1.46574 0.409043,0.5113 1.465736,0.5113 1.533903,0 3.033733,-0.30678 1.49982,-0.34087 3.03373,-0.34087 0.88626,0 1.67025,0.44313 0.81809,0.44313 1.53391,0.95443 0.74992,0.5113 1.43165,0.95443 0.68174,0.44313 1.2953,0.44313 0.2727,0 0.44313,0.20452 0.17044,0.17044 0.23861,0.44313 0.10226,0.23861 0.10226,0.51131 0.0341,0.27269 0.0341,0.47721 z"
       style="stroke-width:3.27234006"
       id="path1216"
       inkscape:connector-curvature="0" />
    <path
       d="m 147.37129,188.06531 q 0,0.34087 -0.27269,0.47721 -0.23861,0.13635 -0.47722,0.2727 -0.37495,0.20452 -0.61356,0.47722 -0.23861,0.27269 -0.44313,0.61356 -0.20452,0.30678 -0.37496,0.68174 -0.17043,0.34087 -0.37495,0.64765 -0.47722,0.71582 -1.32939,0.98852 -0.81809,0.27269 -1.63617,0.5113 -0.81809,0.23861 -1.49982,0.68174 -0.64765,0.40904 -0.81809,1.43165 h -0.17043 q -0.784,0 -1.46574,0.27269 -0.64765,0.2727 -1.32939,0.57948 -0.64765,0.34087 -1.32938,0.61356 -0.68174,0.2727 -1.43165,0.2727 -0.40905,0 -0.784,-0.13635 -0.34087,-0.13635 -0.71583,-0.30678 -0.34086,-0.17044 -0.71582,-0.30678 -0.34087,-0.13635 -0.74991,-0.13635 -0.54539,0 -1.05669,0.0682 -0.51131,0.0682 -1.02261,0.0682 -0.37496,0 -0.88626,-0.10227 -0.5113,-0.0682 -0.95443,-0.27269 -0.44313,-0.20452 -0.74991,-0.5113 -0.30678,-0.34087 -0.30678,-0.81809 0,-0.17043 0.0341,-0.27269 -0.17043,0.17043 -0.37495,0.2386 -0.20453,0.0341 -0.40905,0.0341 -1.0226,0 -1.90886,-0.44313 -0.85217,-0.47721 -1.63617,-1.12486 -0.74991,-0.68174 -1.43165,-1.43165 -0.64765,-0.784 -1.2953,-1.43165 -0.784,-0.784 -1.22713,-1.80661 -0.40904,-1.0226 -0.98852,-1.97704 -1.22713,-1.97703 -1.49982,-3.98816 -0.2727,-2.04521 -0.2727,-4.26086 0,-0.40904 0.0341,-0.92035 0.0682,-0.54539 0.23861,-0.78399 0.13635,-0.17044 0.34087,-0.23861 0.20452,-0.10226 0.37495,-0.17044 0.20452,-0.10226 0.34087,-0.20452 0.13635,-0.10226 0.13635,-0.30678 0,-0.47722 -0.23861,-0.85217 -0.23861,-0.40904 -0.23861,-0.88626 0,-0.34087 0.13635,-0.57948 0.17044,-0.2386 0.34087,-0.5113 0.27269,-0.44313 0.47722,-1.46574 0.2386,-1.05669 0.47721,-2.07929 0.2727,-1.0567 0.64765,-1.8407 0.40905,-0.81808 1.0567,-0.81808 0.47721,0 0.88625,0.13635 0.40905,0.13634 0.88626,0.13634 0.40905,0 0.784,-0.10226 l 0.0341,-0.27269 q 0,-0.40904 -0.2727,-0.5113 -0.2386,-0.10227 -0.54539,-0.13635 -0.27269,-0.0341 -0.54539,-0.0682 -0.2386,-0.0682 -0.2386,-0.37495 0,-0.20452 0.17043,-0.34087 0.20452,-0.17043 0.44313,-0.2727 0.27269,-0.13634 0.54539,-0.2386 0.27269,-0.10226 0.40904,-0.20452 0.34087,-0.2727 0.47722,-0.51131 0.13635,-0.27269 0.23861,-0.5113 0.13634,-0.23861 0.37495,-0.40904 0.23861,-0.17044 0.784,-0.30679 0.47722,-0.10226 0.95443,-0.10226 0.47722,-0.0341 0.95443,-0.0341 0.47722,-0.0341 0.95444,-0.0682 0.47721,-0.0341 0.95443,-0.17043 l -0.34087,-0.34087 q 0.17044,-0.30678 0.47722,-0.47722 0.30678,-0.20452 0.68174,-0.30678 0.40904,-0.10226 0.78399,-0.10226 0.40905,-0.0341 0.71583,-0.0341 1.19304,0 2.31791,0.30679 1.12486,0.30678 2.24973,0.30678 0.47722,0 0.92034,-0.10226 0.47722,-0.13635 0.95444,-0.13635 0.71582,0 1.32939,0.37496 0.64765,0.34086 1.22712,0.64765 l 0.13635,0.0341 q 0.30678,0 0.5113,-0.2386 0.20452,-0.23861 0.40905,-0.23861 0.17043,0 0.27269,0.17043 0.10226,0.13635 0.20452,0.2727 0.2727,0.30678 0.71583,0.40904 0.47721,0.0682 0.64765,0.34087 0.23861,0.40904 0.54539,0.57947 0.30678,0.13635 0.61356,0.20453 0.30678,0.0682 0.64765,0.13634 0.34087,0.0682 0.64765,0.30679 v 0.95443 q 0.68174,0.88626 1.26122,1.36347 0.61356,0.44313 1.05669,0.95444 0.47722,0.47721 0.71582,1.22712 0.2727,0.71583 0.2727,2.11339 0,1.49982 -0.2727,2.62469 -0.2386,1.12487 -0.88625,1.90886 -0.61357,0.74991 -1.67026,1.15896 -1.05669,0.37495 -2.62469,0.34087 l -2.21565,-0.0341 q -0.27269,-0.44313 -0.784,-1.22713 -0.5113,-0.81808 -1.0226,-1.67026 -0.51131,-0.88625 -0.92035,-1.63617 -0.37495,-0.78399 -0.37495,-1.19304 0,-0.5113 0.0682,-1.0226 0.10226,-0.51131 0.10226,-1.02261 -0.23861,-0.64765 -0.64765,-1.05669 -0.37496,-0.40904 -0.88626,-0.61357 -0.5113,-0.2386 -1.12487,-0.30678 -0.57947,-0.0682 -1.19304,-0.0682 -0.88625,0 -1.77251,0.13635 -0.85218,0.13634 -1.67026,0.44313 0,-0.30679 -0.17043,-0.54539 -0.13635,-0.2727 -0.51131,-0.2727 -0.47721,0 -1.15895,0.37496 -0.68174,0.34087 -1.39756,0.85217 -0.68174,0.5113 -1.26122,1.09078 -0.57948,0.54539 -0.85217,0.95443 -0.23861,0.34087 -0.64765,1.05669 -0.40904,0.71583 -0.88626,1.43165 -0.44313,0.71583 -0.95443,1.2953 -0.47722,0.54539 -0.88626,0.57948 0.10226,0.47722 0.27269,1.2953 0.17044,0.784 0.30679,1.67026 0.13634,0.88626 0.2386,1.70434 0.10226,0.784 0.10226,1.22713 0,0.784 0.2727,1.46574 0.27269,0.68173 0.27269,1.46573 0,0.57948 -0.17043,1.15896 -0.13635,0.57947 -0.13635,1.15895 0,0.5113 0.13635,0.68174 0.17043,0.17043 0.64765,0.30678 0.54539,0.17043 0.74991,0.57948 0.23861,0.40904 0.37496,0.85217 0.17043,0.40904 0.37495,0.71582 0.23861,0.30678 0.81809,0.30678 h 0.17043 l 0.40905,-0.0341 q 0.40904,0.54539 0.47721,1.22712 0.10226,0.68174 0.51131,1.22713 0.2386,-0.0341 0.30678,-0.20452 0.0682,-0.17043 0.13634,-0.34087 0.0682,-0.17043 0.20453,-0.30678 0.17043,-0.13635 0.57947,-0.13635 0.37496,0 0.61357,0.20452 0.2386,0.20453 0.44313,0.47722 0.20452,0.23861 0.40904,0.44313 0.23861,0.20452 0.57948,0.20452 0.57947,0 1.26121,-0.20452 0.71582,-0.23861 1.43165,-0.5113 0.74991,-0.30679 1.46573,-0.61357 0.71583,-0.30678 1.29531,-0.47721 1.39756,-0.40905 2.62468,-1.19304 1.22713,-0.784 1.97704,-2.0793 0.37496,-0.68174 0.88626,-1.26122 0.54539,-0.57947 0.85217,-1.2953 0.34087,0 0.68174,-0.0341 0.34087,-0.0341 0.71583,-0.0341 0.10226,0 0.30678,0 0.23861,0 0.47721,0.0341 0.23861,0.0341 0.40905,0.10226 0.20452,0.0682 0.20452,0.17044 0,0.30678 -0.23861,0.5113 -0.20452,0.17044 -0.47722,0.34087 -0.2386,0.13635 -0.44313,0.34087 -0.20452,0.17043 -0.20452,0.5113 l 0.37496,-0.0341 q 0.40904,0 1.09078,0.20452 0.68174,0.20452 1.32939,0.57947 0.68173,0.34087 1.15895,0.784 0.5113,0.44313 0.5113,0.92035 z m -2.45425,1.90886 q 0,-0.20452 -0.17044,-0.34087 -0.13634,-0.17043 -0.34086,-0.17043 -0.23861,0 -0.40905,0.30678 -0.17043,0.30678 -0.17043,0.47722 0,0.20452 0.23861,0.20452 0.2386,-0.0341 0.30678,-0.0341 0.17043,0 0.34087,-0.0682 0.20452,-0.10226 0.20452,-0.37496 z"
       style="stroke-width:3.27234006"
       id="path1218"
       inkscape:connector-curvature="0" />
    <path
       d="m 184.32146,182.98636 q 0,1.09078 -0.23861,2.0793 -0.23861,0.95444 -0.54539,1.90887 -0.30678,0.92034 -0.64765,1.90886 -0.30678,0.95444 -0.47722,1.97704 -0.30678,1.70435 -1.22712,2.82921 -0.92035,1.12487 -2.21565,1.77252 -1.2953,0.68174 -2.89739,0.98852 -1.56799,0.34087 -3.23825,0.5113 -1.67026,0.17044 -3.30643,0.23861 -1.60208,0.0682 -2.96555,0.23861 -0.51131,-0.37496 -0.85218,-0.81809 -0.34086,-0.44313 -0.64765,-0.85217 -0.30678,-0.37495 -0.68173,-0.64765 -0.37496,-0.23861 -0.98852,-0.23861 -0.20453,0 -0.34087,-0.54539 -0.10226,-0.57947 -0.20452,-1.26121 -0.10226,-0.71583 -0.23861,-1.26122 -0.10226,-0.57947 -0.30678,-0.57947 -0.784,0 -1.26122,-0.34087 -0.44313,-0.34087 -0.71582,-0.85217 -0.23861,-0.54539 -0.34087,-1.19304 -0.0682,-0.64765 -0.0682,-1.26122 0,-0.47721 -0.20452,-0.88626 -0.20452,-0.40904 -0.44313,-0.784 -0.2386,-0.40904 -0.44313,-0.81808 -0.20452,-0.40904 -0.20452,-0.85217 0,-0.51131 0.0341,-1.26122 0.0682,-0.784 0.10226,-1.60208 0.0682,-0.81809 0.10226,-1.60208 0.0682,-0.784 0.0682,-1.2953 0,-0.61357 0.13634,-1.02261 0.17044,-0.40904 0.37496,-0.71583 0.20452,-0.30678 0.34087,-0.54539 0.17043,-0.2386 0.17043,-0.54539 0,-0.40904 -0.20452,-0.68173 -0.17043,-0.2727 -0.17043,-0.54539 0,-0.37496 0.2386,-0.71583 0.23861,-0.37495 0.34087,-0.74991 0.37496,-1.49982 0.37496,-2.96556 0,-0.30678 -0.0341,-0.57947 0,-0.30679 -0.0341,-0.57948 -0.78399,-0.64765 -1.73843,-0.81809 -0.95443,-0.20452 -1.90886,-0.27269 -0.95443,-0.10226 -1.84069,-0.23861 -0.88626,-0.13635 -1.49982,-0.71582 -0.51131,-0.47722 -0.92035,-1.0567 -0.40904,-0.61356 -1.09078,-0.81808 -0.47722,-0.17044 -0.81809,-0.44313 -0.30678,-0.30678 -0.30678,-0.85217 0,-0.81809 0.47722,-1.22713 0.5113,-0.44313 1.19304,-0.68174 0.68174,-0.27269 1.39756,-0.44313 0.74991,-0.20452 1.26122,-0.57947 0.5113,-0.37496 1.22712,-0.37496 0.30679,0 0.57948,0.0341 0.30678,0 0.61356,0 0.85218,0 1.39757,-0.2727 0.57947,-0.30678 0.88625,-0.784 0.34087,-0.5113 0.44313,-1.15895 0.13635,-0.64765 0.13635,-1.39756 0,-1.09078 -0.13635,-2.11339 -0.13634,-1.0226 -0.13634,-2.11338 0,-1.26122 0.34087,-2.31791 0.34086,-1.05669 1.2953,-1.94295 0.20452,-0.17044 0.44313,-0.44313 0.2386,-0.2727 0.5113,-0.51131 0.27269,-0.27269 0.54539,-0.44313 0.30678,-0.17043 0.61356,-0.17043 0.20452,0 0.34087,0.10226 0.17044,0.0682 0.34087,0.20452 0.74991,0.74991 0.95443,1.12487 0.23861,0.34087 0.23861,0.81808 0,0.2727 -0.0341,0.61357 0,0.30678 0,0.81808 0,1.09078 0.2727,2.14748 0.27269,1.05669 0.27269,1.8066 0,0.64765 -0.27269,1.26122 -0.23861,0.57947 -0.23861,1.22712 0,0.47722 0.20452,0.88626 0.23861,0.37496 0.51131,0.74991 0.30678,0.37496 0.54539,0.784 0.2386,0.37496 0.2386,0.88626 0.34087,0.23861 1.53391,0.44313 1.19304,0.17043 2.65878,0.30678 1.46574,0.10226 2.96556,0.17044 1.49982,0.0682 2.48834,0.0682 0.88626,0 1.36347,0.13635 0.47722,0.13634 0.784,0.30678 0.34087,0.13635 0.61357,0.30678 0.27269,0.17043 0.71582,0.20452 0.54539,0.0682 0.92035,0.30678 0.40904,0.20452 0.40904,0.85218 0,0.81808 -0.44313,1.2953 -0.40904,0.47721 -1.05669,0.71582 -0.61357,0.23861 -1.32939,0.30678 -0.71583,0.0341 -1.32939,0.0341 -0.98852,0 -1.97704,-0.0682 -0.98852,-0.0682 -1.97704,-0.0682 -1.63617,0 -2.96556,0.30678 -1.32938,0.30679 -2.3179,1.02261 -0.95444,0.71582 -1.49983,1.90887 -0.5113,1.15895 -0.5113,2.93147 0,1.73843 0.20452,3.40868 0.23861,1.67026 0.23861,3.40869 0,1.63617 0.0341,2.62469 0.0682,0.98852 0.40904,1.67026 0.44313,0.98852 0.71582,2.24973 0.2727,1.26122 0.68174,2.38608 0.44313,1.12487 1.19304,1.90887 0.784,0.74991 2.28382,0.74991 0.51131,0 1.36348,-0.13635 0.85217,-0.13635 1.70434,-0.40904 0.85217,-0.30678 1.46574,-0.74991 0.61356,-0.47722 0.61356,-1.15896 0,-0.57947 -0.34087,-1.15895 -0.34087,-0.61356 -0.34087,-1.2953 0,-0.47722 0.20453,-0.81809 0.2386,-0.37495 0.57947,-0.64765 0.37496,-0.30678 0.74991,-0.5113 0.40905,-0.23861 0.784,-0.40904 0.61357,-0.784 1.46574,-1.2953 0.88626,-0.54539 1.87478,-0.54539 0.68173,0 1.2953,0.2386 0.64765,0.23861 1.19304,0.61357 0.10226,0.61356 0.10226,1.26121 z"
       style="stroke-width:3.27234006"
       id="path1220"
       inkscape:connector-curvature="0" />
    <path
       d="m 223.75998,180.15715 q 0,0.47722 -0.17044,0.92035 -0.13635,0.40904 -0.34087,0.71582 -0.17043,0.30678 -0.34087,0.51131 -0.13634,0.20452 -0.13634,0.2386 0,0.34087 0.20452,0.71583 0.23861,0.37495 0.23861,0.81808 0,0.20452 -0.17044,0.2727 -0.13635,0.0682 -0.30678,0.0682 -0.30678,0 -0.5113,-0.0682 0.0341,0.64765 0.10226,1.26121 0.10226,0.61357 0.10226,1.26122 0,0.98852 -0.20452,1.2953 -0.17044,0.27269 -0.37496,0.34087 -0.20452,0.0682 -0.40904,0.17043 -0.17044,0.0682 -0.17044,0.61357 0,0.30678 -0.44313,0.78399 -0.40904,0.47722 -1.0226,0.95444 -0.57948,0.47721 -1.22713,0.81808 -0.61356,0.34087 -0.98852,0.34087 -0.10226,0 -0.23861,-0.0682 0,0.27269 0.0341,0.57947 0.0341,0.30678 0.0341,0.57948 0,0.44313 -0.2727,0.61356 -0.27269,0.13635 -0.61356,0.2727 -0.51131,0.23861 -1.0567,0.71582 -0.54539,0.44313 -1.12486,0.92035 -0.57948,0.47721 -1.19304,0.81808 -0.57948,0.37496 -1.22713,0.37496 -0.54539,0 -1.02261,-0.2727 -0.44313,-0.27269 -1.05669,-0.27269 -0.54539,0 -0.92035,0.13635 -0.37495,0.17043 -0.71582,0.34087 -0.30678,0.20452 -0.64765,0.34086 -0.34087,0.17044 -0.784,0.17044 -0.88626,0 -1.77252,-0.47722 -0.88626,-0.44313 -1.70434,-0.71582 -0.47722,-0.17044 -1.02261,-0.2727 -0.54539,-0.0682 -1.05669,-0.17043 -0.5113,-0.10226 -0.98852,-0.34087 -0.44313,-0.20452 -0.784,-0.61356 -0.71582,-0.88626 -1.67025,-1.46574 -0.95444,-0.57948 -1.94296,-1.09078 -0.98852,-0.5113 -1.90886,-1.05669 -0.92035,-0.57948 -1.60208,-1.49983 -0.51131,-0.71582 -1.15896,-1.5339 -0.64765,-0.85218 -1.22713,-1.77252 -0.54539,-0.92035 -0.92034,-1.87478 -0.37496,-0.95443 -0.37496,-1.87478 0,-0.68174 0.13635,-1.32939 0.13635,-0.64765 0.2727,-1.2953 0.17043,-0.68174 0.30678,-1.32939 0.13635,-0.64765 0.13635,-1.32938 v -0.37496 q 0,-0.13635 -0.10227,-0.30678 -0.10226,-0.17044 -0.2386,-0.30678 -0.10226,-0.17044 -0.23861,-0.2727 -0.10226,-0.13635 -0.13635,-0.13635 -0.0682,0 -0.0682,0.0341 0.0341,-0.30678 0.17043,-0.92035 0.17044,-0.64765 0.37496,-1.2953 0.20452,-0.68173 0.40904,-1.22712 0.20452,-0.57948 0.37496,-0.74992 0.20452,-0.17043 0.37495,-0.34086 0.20452,-0.20453 0.20452,-0.51131 0,-0.30678 -0.0341,-0.57947 -0.0341,-0.30679 -0.0341,-0.61357 0,-0.40904 0.10226,-0.47721 0.10226,-0.10226 0.27269,-0.10226 0.17044,0 0.34087,-0.0341 0.17044,-0.0682 0.34087,-0.37496 0.30678,-0.61356 0.57948,-1.12486 0.30678,-0.54539 0.64765,-0.98852 0.34087,-0.44313 0.784,-0.81809 0.44313,-0.37495 1.09078,-0.71582 0.54539,-0.30678 1.05669,-0.74991 0.54539,-0.44313 1.09078,-0.88626 0.54539,-0.44313 1.09078,-0.74991 0.57948,-0.30679 1.22713,-0.30679 0.92034,0 1.77252,-0.30678 0.88625,-0.34087 1.77251,-0.5113 1.39756,-0.20452 2.76104,-0.37496 1.39756,-0.20452 2.82921,-0.20452 0.784,0 1.90887,0.2727 1.12486,0.23861 2.28382,0.64765 1.19304,0.40904 2.21564,0.92034 1.0567,0.51131 1.67026,1.02261 v 0.10226 q 0,0.47722 -0.17043,0.98852 -0.17044,0.47722 -0.17044,0.95443 0,0.0682 0,0.13635 0,0.0682 0.0682,0.0682 0.57947,0 1.09078,-0.13634 0.54539,-0.17044 1.12486,-0.17044 0.0682,0.57948 0.51131,0.784 0.44312,0.20452 0.88625,0.37496 0.40905,0.20452 0.74992,0.74991 0.37495,0.5113 0.68173,1.19304 0.30678,0.64765 0.57948,1.2953 0.30678,0.64765 0.57948,1.05669 0.27269,0.40904 0.47721,0.98852 0.23861,0.54539 0.37496,1.15895 0.17043,0.61357 0.23861,1.22713 0.0682,0.57948 0.0682,1.09078 0,0.68174 -0.27269,1.15896 -0.23861,0.44313 -0.54539,0.81808 -0.30679,0.34087 -0.57948,0.68174 -0.23861,0.30678 -0.23861,0.71582 0,0.23861 0.10226,0.44313 0.10226,0.20452 0.2727,0.37496 0.0682,-0.0341 0.27269,-0.0682 0.23861,-0.0341 0.23861,-0.20452 v -0.0341 q 0,-0.2727 -0.23861,-0.51131 -0.20452,-0.23861 -0.20452,-0.57947 0,-0.0682 0.0682,-0.20453 0.0682,-0.17043 0.17044,-0.17043 0.20452,0 0.40904,0.2727 0.20452,0.2386 0.37496,0.54539 0.20452,0.27269 0.30678,0.47721 0.10226,0.20452 0.10226,0.13635 l -0.0341,-0.0341 q 0.0341,0.17044 0.0341,0.30678 0.0341,0.10226 0.0341,0.23861 z m -3.40869,0.2727 q 0,-0.54539 -0.40904,-0.64765 -0.40905,-0.13635 -0.92035,-0.17044 -0.5113,-0.0341 -1.02261,-0.10226 -0.47721,-0.0682 -0.64765,-0.5113 v -0.34087 q 0,-0.74991 -0.20452,-1.73843 -0.17043,-1.02261 -0.44313,-2.04521 -0.27269,-1.0567 -0.57947,-2.04522 -0.30679,-1.0226 -0.57948,-1.8066 -0.2727,-0.784 -0.44313,-1.26121 -0.17044,-0.47722 -0.17044,-0.47722 -0.27269,0.0682 -0.44312,0.0682 -0.57948,0 -1.02261,-0.23861 -0.40904,-0.2386 -0.95443,-0.5113 -0.51131,-0.27269 -1.2953,-0.5113 -0.74992,-0.23861 -2.01113,-0.23861 -1.39756,0 -2.76104,-0.17043 -1.36347,-0.20453 -2.76103,-0.20453 -1.90887,0 -3.57913,0.88626 -1.67025,0.85218 -2.93147,2.28382 -1.26121,1.39757 -1.97704,3.17008 -0.71582,1.77252 -0.71582,3.57913 0,0.74991 0.0341,1.77251 0.0341,0.98852 0.17043,2.01113 0.13635,0.98852 0.44313,1.87478 0.30678,0.85217 0.85217,1.2953 v 0.95443 q 0.13635,0.13635 0.34087,0.17044 0.23861,0 0.44313,0 0.23861,0 0.40904,0.0682 0.17044,0.0341 0.2727,0.27269 0.44313,1.26122 1.15895,1.94296 0.71583,0.64765 1.53391,1.12486 0.81809,0.44313 1.63617,0.92035 0.81809,0.44313 1.49982,1.32939 0.2727,-0.0341 0.57948,-0.0341 0.30678,-0.0341 0.57948,-0.0341 1.09078,0 2.11338,0.17044 1.0567,0.13634 2.11339,0.13634 1.12487,0 2.01113,-0.57947 0.92034,-0.57948 1.56799,-1.46574 0.40904,-0.57947 0.74991,-0.98852 0.34087,-0.40904 0.68174,-0.74991 0.37496,-0.37495 0.784,-0.68174 0.44313,-0.34086 1.0226,-0.74991 0.20453,-0.13634 0.47722,-0.34087 0.30678,-0.20452 0.57948,-0.44313 0.30678,-0.27269 0.5113,-0.5113 0.20452,-0.27269 0.20452,-0.5113 0,-0.30678 -0.10226,-0.61357 -0.0682,-0.30678 -0.0682,-0.61356 0,-0.34087 0.10226,-0.81808 0.10226,-0.47722 0.30678,-0.92035 0.23861,-0.44313 0.54539,-0.71582 0.34087,-0.30679 0.81809,-0.30679 0.37495,0 0.74991,0.17044 0.37495,0.17043 0.68173,0.40904 0.0682,-0.34087 0.0682,-0.5113 z"
       style="stroke-width:3.27234006"
       id="path1222"
       inkscape:connector-curvature="0" />
    <path
       d="m 266.09587,170.20378 q 0,0.68174 -0.27269,1.15896 -0.2727,0.47721 -0.61357,0.92034 -0.30678,0.40905 -0.64765,0.85218 -0.30678,0.44313 -0.40904,1.05669 -0.30678,-0.13635 -0.64765,-0.17044 -0.30678,-0.0341 -0.64765,-0.0341 -0.81809,0 -1.63617,0.13635 -0.784,0.10226 -1.568,0.10226 -0.92035,0 -1.53391,-0.54539 -0.57948,-0.57948 -0.95443,-1.39757 -0.34087,-0.81808 -0.47722,-1.73843 -0.13635,-0.95443 -0.13635,-1.70434 0,-0.95443 0.30679,-1.94295 -0.2727,-0.10226 -0.47722,-0.10226 -0.44313,0 -0.64765,0.27269 -0.17043,0.2727 -0.5113,0.2727 -0.30679,0 -0.54539,-0.20452 -0.23861,-0.23861 -0.57948,-0.23861 -0.5113,0 -1.2953,0.34087 -0.74991,0.30678 -1.46574,0.81808 -0.71582,0.5113 -1.26121,1.12487 -0.5113,0.57948 -0.5113,1.12487 -0.71583,0.0682 -1.36348,0.40904 -0.61356,0.30678 -1.19304,0.68174 -0.44313,0.27269 -0.74991,0.85217 -0.30678,0.57947 -0.57948,1.26121 -0.23861,0.64765 -0.5113,1.32939 -0.23861,0.68174 -0.57948,1.12487 -0.57948,0.74991 -1.0226,1.53391 -0.40905,0.74991 -0.40905,1.70434 0,1.19304 0.37496,2.42017 0.37495,1.22713 0.37495,2.48834 0,0.81809 -0.13634,1.63617 -0.10226,0.81809 -0.10226,1.60208 0,0.95444 0.34086,1.53391 0.34087,0.57948 0.92035,0.92035 0.57948,0.30678 1.32939,0.40904 0.74991,0.10226 1.53391,0.10226 0.85217,0 1.63617,-0.0341 0.81808,-0.0682 1.49982,-0.0682 0.23861,0.2727 0.2727,0.5113 0.0341,0.23861 -0.0341,0.51131 -0.0341,0.23861 -0.13635,0.5113 -0.0682,0.23861 -0.0682,0.57948 0,0.13634 0.0682,0.34087 0.5113,0 0.88626,-0.23861 0.37496,-0.23861 0.54539,-0.74991 0.23861,0.0682 0.40904,0.20452 0.20452,0.13635 0.20452,0.40904 0,0.20452 -0.10226,0.40904 -0.10226,0.17044 -0.23861,0.34087 -0.13634,0.17044 -0.2386,0.37496 -0.10226,0.17043 -0.10226,0.40904 0,0.13635 0.0341,0.30678 0.0341,0.13635 0.10226,0.23861 -0.17043,0.27269 -0.47721,0.37496 -0.30678,0.10226 -0.61357,0.10226 -0.54539,0 -0.92034,-0.17044 -0.34087,-0.17043 -0.64765,-0.37495 -0.2727,-0.20453 -0.51131,-0.37496 -0.2386,-0.17043 -0.57947,-0.17043 -0.13635,0 -0.40905,0.0682 -0.27269,0.0682 -0.54539,0.17043 -0.27269,0.10226 -0.47721,0.2727 -0.20452,0.13635 -0.20452,0.27269 0,0.2727 0.17043,0.47722 0.20452,0.20452 0.20452,0.47722 0,0.2386 -0.17043,0.37495 -0.17044,0.13635 -0.40904,0.17044 -0.23861,0.0682 -0.51131,0.0682 -0.23861,0.0341 -0.40904,0.0341 -1.32939,0 -2.65878,-0.30678 -1.2953,-0.2727 -2.62469,-0.2727 -0.61356,0 -1.22712,0.2727 -0.61357,0.27269 -1.2953,0.27269 -0.37496,0 -0.57948,-0.17043 -0.17044,-0.13635 -0.30678,-0.34087 -0.13635,-0.20452 -0.30678,-0.37496 -0.17044,-0.13635 -0.51131,-0.13635 -0.64765,0 -1.2953,0.13635 -0.61356,0.13635 -1.26121,0.2727 -0.61357,0.17043 -1.26122,0.27269 -0.61356,0.13635 -1.26121,0.13635 -0.34087,0 -0.81809,-0.10226 -0.47721,-0.0682 -0.92034,-0.2727 -0.44313,-0.20452 -0.74991,-0.5113 -0.30679,-0.30678 -0.30679,-0.74991 0,-0.2727 0.30679,-0.71583 0.34086,-0.44312 0.74991,-0.85217 0.40904,-0.44313 0.81808,-0.74991 0.40904,-0.30678 0.61357,-0.30678 0.54539,0 1.05669,0.0341 0.54539,0.0341 1.12487,0.0341 0.92034,0 1.84069,-0.27269 0.95443,-0.30678 1.70434,-0.85217 0.784,-0.54539 1.26122,-1.36348 0.47721,-0.81808 0.47721,-1.84069 0,-0.44313 -0.0682,-0.85217 -0.0682,-0.44313 -0.0682,-0.88626 0,-0.88626 0.20453,-1.77252 0.20452,-0.88626 0.20452,-1.77252 0,-1.19304 -0.2727,-2.42016 -0.23861,-1.26122 -0.23861,-2.52243 0,-1.12487 0.0341,-2.21565 0.0682,-1.12487 0.0682,-2.24973 0,-0.51131 -0.0341,-1.49983 -0.0341,-0.98852 -0.23861,-1.97703 -0.17044,-0.98852 -0.57948,-1.73844 -0.37495,-0.74991 -1.05669,-0.74991 -0.74991,0 -1.49982,0.17044 -0.74991,0.17043 -1.53391,0.17043 -0.57948,0 -1.36348,-0.0682 -0.784,-0.10226 -1.49982,-0.34087 -0.71582,-0.2727 -1.22713,-0.74991 -0.5113,-0.47722 -0.5113,-1.26122 0,-0.85217 0.23861,-1.36347 0.23861,-0.54539 0.61356,-0.81809 0.40904,-0.27269 0.92035,-0.37495 0.54539,-0.10226 1.15895,-0.10226 0.54539,0 1.12487,0.0341 0.57947,0.0341 1.12486,0.0341 1.09078,0 2.14748,-0.10226 1.09078,-0.13635 2.18156,-0.13635 0.74991,0 1.49982,0.0682 0.74991,0.0682 1.46574,0.30678 0.64765,0.20452 0.95443,0.784 0.30678,0.54539 0.54539,1.12486 0.27269,0.57948 0.61356,1.0567 0.34087,0.44313 1.09078,0.44313 0.34087,0 0.61357,-0.17044 0.30678,-0.20452 0.57947,-0.44313 0.2727,-0.23861 0.54539,-0.44313 0.2727,-0.20452 0.64765,-0.27269 0.74991,-0.10226 1.36348,-0.47722 0.64765,-0.37495 1.26121,-0.74991 0.61357,-0.37495 1.22713,-0.68174 0.64765,-0.30678 1.39756,-0.30678 0.44313,0 1.09078,-0.10226 0.68174,-0.10226 1.32939,-0.27269 0.68174,-0.20453 1.26121,-0.47722 0.61357,-0.2727 0.95444,-0.61356 0.92034,0.0682 2.14747,0.44313 1.26121,0.37495 2.38608,1.0226 1.15896,0.61357 2.01113,1.46574 0.85217,0.85217 0.98852,1.90886 0.10226,0.64765 0.37495,1.22713 0.2727,0.57948 0.54539,1.15895 0.30678,0.54539 0.54539,1.15896 0.23861,0.57947 0.23861,1.22712 z"
       style="stroke-width:3.27234006"
       id="path1224"
       inkscape:connector-curvature="0" />
    <path
       d="m 308.70447,163.99997 q 0,0.40905 -0.20453,0.88626 -0.20452,0.44313 -0.54539,0.85217 -0.30678,0.37496 -0.71582,0.68174 -0.40904,0.30678 -0.784,0.44313 -0.61356,0.20452 -1.53391,0.2727 -0.88626,0.0682 -1.73843,0.2386 -0.81808,0.17044 -1.43165,0.61357 -0.57947,0.40904 -0.57947,1.32939 0,0.54539 -0.0682,0.71582 -0.0682,0.13635 -0.34087,0.13635 -0.0682,0 -0.20452,0 -0.10226,-0.0341 -0.23861,-0.0341 l -0.30678,0.17044 q -0.47721,1.15895 -0.57948,2.42016 -0.0682,1.26122 -0.40904,2.45426 -0.64765,0.0341 -1.05669,0.61356 -0.37496,0.57948 -0.61356,1.36348 -0.20453,0.74991 -0.37496,1.53391 -0.13635,0.78399 -0.30678,1.22712 -1.0567,2.55652 -2.18156,5.01078 -1.09078,2.45425 -2.352,4.90851 -0.10226,0.20452 -0.2386,0.68173 -0.13635,0.44313 -0.30679,0.92035 -0.17043,0.44313 -0.40904,0.784 -0.20452,0.34087 -0.5113,0.34087 -0.40904,-0.17044 -0.784,-0.40905 -0.37496,-0.27269 -0.784,-0.30678 -0.13635,0.0341 -0.13635,0.17044 0,0.37495 0.34087,0.61356 0.37496,0.23861 0.784,0.47722 0.44313,0.2386 0.784,0.47721 0.37495,0.23861 0.37495,0.57948 0,0.30678 -0.2386,0.64765 -0.20452,0.34087 -0.47722,0.71582 -0.27269,0.40905 -0.5113,0.85218 -0.23861,0.44312 -0.2727,0.98851 -0.0682,0.68174 -0.40904,1.22713 -0.30678,0.54539 -0.71582,1.0567 -0.37496,0.54539 -0.71583,1.12486 -0.30678,0.61357 -0.40904,1.36348 -0.0682,0.57947 -0.2727,1.15895 -0.17043,0.61356 -0.47721,1.12487 -0.30678,0.5113 -0.74991,0.88626 -0.44313,0.37495 -1.0567,0.47721 -0.17043,1.02261 -0.85217,2.01113 -0.64765,0.98852 -1.60208,1.73843 -0.95443,0.784 -2.04521,1.22713 -1.09078,0.47721 -2.14748,0.47721 -0.85217,0 -1.67025,-0.23861 -0.784,-0.2386 -1.53391,-0.61356 -0.51131,-0.23861 -0.81809,-0.27269 -0.30678,-0.0341 -0.54539,-0.0682 -0.20452,-0.0341 -0.47722,-0.20452 -0.2386,-0.17043 -0.64765,-0.68174 -0.61356,-0.81808 -1.32938,-1.53391 -0.68174,-0.68173 -1.39757,-1.36347 -0.37495,-0.34087 -0.54539,-0.81809 -0.17043,-0.47721 -0.30678,-0.95443 -0.13635,-0.47721 -0.37495,-0.92034 -0.20452,-0.44313 -0.71583,-0.71583 -0.17043,-0.17043 -0.17043,-0.61356 0,-0.30678 0.23861,-1.26122 0.2386,-0.95443 0.61356,-1.97704 0.37496,-0.98851 0.81808,-1.8066 0.47722,-0.784 0.88626,-0.784 0.2727,0 0.51131,0.0682 0.2386,0.10226 0.5113,0.10226 0.68174,0 1.32939,-0.34087 0.64765,-0.34087 1.36347,-0.34087 0.44313,0 0.64765,0.23861 0.23861,0.23861 0.34087,0.54539 0.10226,0.30678 0.17044,0.54539 0.10226,0.23861 0.34087,0.23861 0.17043,-0.0341 0.30678,-0.10227 0.34087,-0.13634 0.54539,-0.13634 0.44313,0 0.81808,0.20452 0.37496,0.23861 0.68174,0.57948 0.30678,0.34086 0.54539,0.71582 0.27269,0.40904 0.47722,0.74991 0.10226,0.17044 0.30678,0.34087 0.20452,0.20452 0.40904,0.40904 0.20452,0.20452 0.34087,0.37496 0.13635,0.20452 0.13635,0.40904 0,0.37496 -0.20452,0.68174 -0.17044,0.30678 -0.17044,0.61356 0,0.34087 0.2727,0.47722 0.30678,0.13635 0.57947,0.13635 0.64765,0 1.26122,-0.54539 0.64765,-0.51131 1.22712,-1.36348 0.57948,-0.85217 1.0567,-1.90886 0.5113,-1.02261 0.88626,-2.0793 0.37495,-1.02261 0.57947,-1.94296 0.20452,-0.88625 0.20452,-1.43164 0,-0.57948 -0.27269,-1.60209 -0.2727,-1.0226 -0.71582,-2.24973 -0.44313,-1.22713 -0.98852,-2.5906 -0.54539,-1.36348 -1.09078,-2.62469 -0.51131,-1.26122 -0.95444,-2.31791 -0.44313,-1.09078 -0.71582,-1.77252 -0.54539,-1.2953 -0.98852,-2.65878 -0.40904,-1.36347 -0.95443,-2.65877 -0.30678,-0.71583 -0.88626,-1.63617 -0.54539,-0.95443 -1.12487,-1.94295 -0.54539,-1.02261 -0.98852,-1.97704 -0.40904,-0.98852 -0.40904,-1.73843 -0.2727,0 -0.61356,-0.10226 -0.30679,-0.13635 -0.61357,-0.2727 -0.30678,-0.17043 -0.61356,-0.27269 -0.2727,-0.13635 -0.5113,-0.13635 -0.71583,0 -1.46574,0.20452 -0.74991,0.17043 -1.49982,0.17043 -0.40905,0 -0.95444,-0.0682 -0.54539,-0.10226 -1.05669,-0.27269 -0.47721,-0.20453 -0.85217,-0.54539 -0.34087,-0.34087 -0.34087,-0.85218 0,-0.37495 0.10226,-0.85217 0.10226,-0.47721 0.2727,-0.88626 0.20452,-0.44313 0.47721,-0.71582 0.2727,-0.30678 0.61357,-0.30678 0.5113,0 0.98852,0.34087 0.47721,0.30678 1.0226,0.30678 0.784,0 1.53391,-0.0682 0.784,-0.0682 1.568,-0.0682 0.68174,0 1.32939,-0.37496 0.68173,-0.37495 1.26121,-0.68173 0.64765,-0.34087 1.84069,-0.40905 1.22713,-0.10226 2.45426,-0.10226 0.44313,0 1.39756,-0.0341 0.95443,-0.0682 1.90886,0.0682 0.98852,0.13635 1.70435,0.61356 0.74991,0.44313 0.74991,1.43165 0,0.85218 -0.37496,1.43165 -0.34087,0.54539 -0.88626,0.95443 -0.5113,0.40905 -1.15895,0.74992 -0.61356,0.30678 -1.15895,0.68173 -0.51131,0.34087 -0.88626,0.81809 -0.34087,0.47721 -0.34087,1.19304 0,1.12487 0.64765,2.42017 0.64765,1.26121 1.43165,2.52243 0.784,1.22712 1.46573,2.35199 0.68174,1.12487 0.784,1.94295 0.0341,0.44313 0.23861,1.26122 0.20452,0.81808 0.54539,1.63617 0.37496,0.784 0.85217,1.39756 0.51131,0.57948 1.09078,0.57948 0.40904,0 0.71583,-0.34087 0.30678,-0.34087 0.54539,-0.81809 0.2386,-0.47721 0.37495,-0.95443 0.17044,-0.5113 0.2727,-0.81809 0.30678,-0.95443 0.54539,-1.90886 0.27269,-0.95443 0.85217,-1.77252 0.47722,-0.61356 0.74991,-1.26121 0.2727,-0.68174 0.57948,-1.39756 0.34087,-0.85218 0.68173,-1.32939 0.37496,-0.47722 0.64766,-0.95444 0.27269,-0.47721 0.44312,-1.15895 0.20453,-0.68174 0.20453,-1.97704 0,-0.784 -0.34087,-1.15895 -0.34087,-0.37496 -0.85217,-0.57948 -0.47722,-0.20452 -1.0567,-0.34087 -0.57947,-0.13634 -1.09078,-0.40904 -0.47721,-0.30678 -0.81808,-0.88626 -0.34087,-0.57948 -0.34087,-1.63617 0,-0.88626 0.54539,-1.39756 0.54539,-0.54539 1.32939,-0.784 0.81808,-0.27269 1.77251,-0.34087 0.95444,-0.0682 1.77252,-0.0682 h 1.19304 q 1.49982,0 2.93147,-0.20452 1.46574,-0.20452 2.93148,-0.20452 0.44312,0 1.2953,0.2386 0.85217,0.23861 1.70434,0.54539 0.85217,0.30679 1.43165,0.61357 0.61356,0.27269 0.57948,0.37495 0,-0.0341 0.20452,0.2727 0.23861,0.30678 0.23861,0.71582 z m -28.12168,39.84756 -0.5113,-0.0341 h -0.20452 q -0.57948,0 -0.92035,0.2727 -0.34087,0.30678 -0.34087,0.92034 l 0.0341,0.2727 q 0.30678,-0.0682 0.64765,-0.13635 0.34087,-0.0341 0.61357,-0.13635 0.30678,-0.10226 0.47721,-0.30678 0.20452,-0.20452 0.20452,-0.57947 v -0.13635 z"
       style="stroke-width:3.27234006"
       id="path1226"
       inkscape:connector-curvature="0" />
  </g>
  <path
     style="fill:#000000;fill-opacity:1;stroke:#000000;stroke-width:0.7509352;stroke-miterlimit:4;stroke-dasharray:none;stroke-opacity:1"
     d="m 25.202549,126.91238 h 8.48498 v 99.43335 h -8.48498 z"
     id="rect143" />
  <path
     style="fill:#000000;fill-opacity:1;stroke:#000000;stroke-width:0.7509352;stroke-miterlimit:4;stroke-dasharray:none;stroke-opacity:1"
     d="m 37.715332,126.91238 h 8.48498 v 99.43335 h -8.48498 z"
     id="rect143-8" />
  <path
     style="fill:#000000;fill-opacity:1;stroke:#000000;stroke-width:0.7509352;stroke-miterlimit:4;stroke-dasharray:none;stroke-opacity:1"
     d="m 50.228111,126.91238 h 8.48498 v 99.43335 h -8.48498 z"
     id="rect143-3" />
  <path
     style="fill:#000000;fill-opacity:1;stroke:#000000;stroke-width:0.7509352;stroke-miterlimit:4;stroke-dasharray:none;stroke-opacity:1"
     d="m 62.740894,126.91238 h 8.48498 v 99.43335 h -8.48498 z"
     id="rect143-8-2" />
  <path
     style="fill:#000000;fill-opacity:1;stroke:#000000;stroke-width:0.7509352;stroke-miterlimit:4;stroke-dasharray:none;stroke-opacity:1"
     d="m 75.25367,126.91238 h 8.484979 v 99.43335 H 75.25367 Z"
     id="rect143-34" />
  <path
     style="fill:#000000;fill-opacity:1;stroke:#000000;stroke-width:0.7509352;stroke-miterlimit:4;stroke-dasharray:none;stroke-opacity:1"
     d="m 87.766449,126.91238 h 8.48498 v 99.43335 h -8.48498 z"
     id="rect143-8-9" />
  <path
     style="fill:#000000;fill-opacity:1;stroke:#000000;stroke-width:0.7509352;stroke-miterlimit:4;stroke-dasharray:none;stroke-opacity:1"
     d="m 100.27924,126.91238 h 8.48498 v 99.43335 h -8.48498 z"
     id="rect143-3-1" />
  <path
     style="fill:#000000;fill-opacity:1;stroke:#000000;stroke-width:0.7509352;stroke-miterlimit:4;stroke-dasharray:none;stroke-opacity:1"
     d="m 112.79202,126.91238 h 8.48498 v 99.43335 h -8.48498 z"
     id="rect143-8-2-9" />
  <path
     style="fill:#000000;fill-opacity:1;stroke:#000000;stroke-width:0.7509352;stroke-miterlimit:4;stroke-dasharray:none;stroke-opacity:1"
     d="m 125.3048,126.91238 h 8.48498 v 99.43335 h -8.48498 z"
     id="rect143-2" />
  <path
     style="fill:#000000;fill-opacity:1;stroke:#000000;stroke-width:0.7509352;stroke-miterlimit:4;stroke-dasharray:none;stroke-opacity:1"
     d="m 137.81758,126.91238 h 8.48498 v 99.43335 h -8.48498 z"
     id="rect143-8-7" />
  <path
     style="fill:#000000;fill-opacity:1;stroke:#000000;stroke-width:0.7509352;stroke-miterlimit:4;stroke-dasharray:none;stroke-opacity:1"
     d="m 150.33037,126.91238 h 8.48498 v 99.43335 h -8.48498 z"
     id="rect143-3-6" />
  <path
     style="fill:#000000;fill-opacity:1;stroke:#000000;stroke-width:0.7509352;stroke-miterlimit:4;stroke-dasharray:none;stroke-opacity:1"
     d="m 162.84315,126.91238 h 8.48498 v 99.43335 h -8.48498 z"
     id="rect143-8-2-7" />
  <path
     style="fill:#000000;fill-opacity:1;stroke:#000000;stroke-width:0.7509352;stroke-miterlimit:4;stroke-dasharray:none;stroke-opacity:1"
     d="m 175.35593,126.91238 h 8.48498 v 99.43335 h -8.48498 z"
     id="rect143-34-6" />
  <path
     style="fill:#000000;fill-opacity:1;stroke:#000000;stroke-width:0.7509352;stroke-miterlimit:4;stroke-dasharray:none;stroke-opacity:1"
     d="m 187.86871,126.91238 h 8.48498 v 99.43335 h -8.48498 z"
     id="rect143-8-9-9" />
  <path
     style="fill:#000000;fill-opacity:1;stroke:#000000;stroke-width:0.7509352;stroke-miterlimit:4;stroke-dasharray:none;stroke-opacity:1"
     d="m 200.38148,126.91238 h 8.48498 v 99.43335 h -8.48498 z"
     id="rect143-3-1-5" />
  <path
     style="fill:#000000;fill-opacity:1;stroke:#000000;stroke-width:0.7509352;stroke-miterlimit:4;stroke-dasharray:none;stroke-opacity:1"
     d="m 212.89426,126.91238 h 8.48498 v 99.43335 h -8.48498 z"
     id="rect143-8-2-9-0" />
  <path
     style="fill:#000000;fill-opacity:1;stroke:#00000d;stroke-width:0.7509352;stroke-miterlimit:4;stroke-dasharray:none;stroke-opacity:1"
     d="m 225.40704,126.91238 h 8.48498 v 99.43335 h -8.48498 z"
     id="rect143-80" />
  <path
     style="fill:#000000;fill-opacity:1;stroke:#000000;stroke-width:0.7509352;stroke-miterlimit:4;stroke-dasharray:none;stroke-opacity:1"
     d="m 237.91983,126.91238 h 8.48498 v 99.43335 h -8.48498 z"
     id="rect143-8-3" />
  <path
     style="fill:#000000;fill-opacity:1;stroke:#000000;stroke-width:0.7509352;stroke-miterlimit:4;stroke-dasharray:none;stroke-opacity:1"
     d="m 250.43262,126.91241 h 8.48498 v 99.43335 h -8.48498 z"
     id="rect143-3-0" />
  <path
     style="fill:#000000;fill-opacity:1;stroke:#000000;stroke-width:0.7509352;stroke-miterlimit:4;stroke-dasharray:none;stroke-opacity:1"
     d="m 262.9454,126.91241 h 8.48498 v 99.43335 h -8.48498 z"
     id="rect143-8-2-74" />
  <path
     style="fill:#000000;fill-opacity:1;stroke:#000000;stroke-width:0.7509352;stroke-miterlimit:4;stroke-dasharray:none;stroke-opacity:1"
     d="m 275.45819,126.91238 h 8.48498 v 99.43335 h -8.48498 z"
     id="rect143-34-7" />
  <path
     style="fill:#000000;fill-opacity:1;stroke:#000000;stroke-width:0.7509352;stroke-miterlimit:4;stroke-dasharray:none;stroke-opacity:1"
     d="m 287.97095,126.91238 h 8.48498 v 99.43335 h -8.48498 z"
     id="rect143-8-9-0" />
  <path
     style="fill:#000000;fill-opacity:1;stroke:#060000;stroke-width:0.7509352;stroke-miterlimit:4;stroke-dasharray:none;stroke-opacity:1"
     d="m 300.48373,126.91241 h 8.48498 v 99.43335 h -8.48498 z"
     id="rect143-3-1-0" />
  <path
     style="fill:#000000;fill-opacity:1;stroke:#0a0000;stroke-width:0.7509352;stroke-miterlimit:4;stroke-dasharray:none;stroke-opacity:1"
     d="m 312.99649,126.91241 h 8.48498 v 99.43335 h -8.48498 z"
     id="rect143-8-2-9-8" />
</svg>
